<?xml version="1.0" encoding="UTF-8" standalone="yes"?>
<svg version="1.1" id="Layer_1" xmlns="http://www.w3.org/2000/svg" xmlns:xlink="http://www.w3.org/1999/xlink" x="0px" y="0px" viewBox="0 0 315 181.6971436" style="enable-background:new 0 0 315 181.6971436;" xml:space="preserve">
      <style type="text/css">.st0{fill:#AB8C71;}</style>
    <g id="color_index_0" fill="rgba(66, 61, 60, 1)">
              <path d="M315,180.5081635c-1.0290527-5.3144989-6.4571228-5.1580658-8.7759399-9.2624359&#x9;&#x9;c-1.7171631-6.1451874-2.7431641-13.3395691-1.4061279-19.8318329c4.4763489-10.1580658-0.8242188-22.3207397-7.6563416-30.6851349&#x9;&#x9;c-5.5141296-7.670166-9.4767761-16.9443359-17.4103699-22.5112686c-1.4300232-3.4690857-4.6864624-6.637146-9.4221191-9.169075&#x9;&#x9;c-0.5238037-3.5845718-3.4533081-6.9217682-7.8620911-8.9469299c-4.0258789-8.2724762-11.9858093-13.3563995-18.8720551-19.0525322&#x9;&#x9;c0.1954803-14.3584061-0.0329437-28.5883141-0.1628265-42.7864838c-0.1537323-4.426693,0.8693237-10.8171167-2.1885986-13.8227139&#x9;&#x9;c-27.4901886-4.5186911-58.4685669-0.6909125-86.5231628-2.6231847&#x9;&#x9;C42.9436455,4.5323563,71.372963-21.5485268,66.4890366,61.754509c-2.9836578,1.8523026-4.7713776,5.2017975-6.4314156,8.1429214&#x9;&#x9;c-5.0834122,2.7193604-8.6055145,8.2735596-8.993,14.1780167c-2.7193565,2.1968155-8.237587,7.9453964-9.0636826,11.6448288&#x9;&#x9;c-10.7109604,6.352562-24.4227009,40.510849-29.6183128,56.6595306c-2.6666021,3.6868134-4.6304088,8.8815613-3.4263535,13.1554108&#x9;&#x9;C10.8084879,174.1591492,1.4110957,172.3740234,0,178.0692139c1.2110656,4.4701538,10.7976036,1.9187927,14.8357687,2.4206238&#x9;&#x9;c5.1864119,0.8366852,15.3262491-0.2187195,11.4252119-7.3969421c3.802166,2.6766357,11.9900837,2.146759,13.2780857-3.0872803&#x9;&#x9;l0.0075722,0.0075684c2.3383522-8.4137573,11.109787-1.2823792,16.414135-4.1933136&#x9;&#x9;c3.3319397-1.9102173,19.1311836-0.0278778,25.1271858-0.7825775c3.337265,0.0616608,8.8436813,2.2251434,10.3359833-1.8594208&#x9;&#x9;c5.7444229,3.8188934,15.1567383,2.7245178,21.5836029,2.3144989c7.2216568-1.5168457,14.2895813,1.2994995,21.6300583,0.2989655&#x9;&#x9;c14.1436462-0.5580139,27.8352966,0.5360107,42.0519562,0.2225189c3.0217133,0.1233978,5.9291534-1.6519775,9.223999-0.6628876&#x9;&#x9;c10.4160919,2.2211151,21.2949219-1.3847504,31.7765045,0.1221771c5.505127,1.7133331,9.7646027-2.0818787,15.0664978-2.0166626&#x9;&#x9;c5.0785522,0.7307129,9.1670685-1.4458313,13.6076355,0.4879456c6.1124115,2.6663055,13.4987183-2.2310333,19.3453369,1.6536713&#x9;&#x9;c7.6821899,6.3128967,14.9541626-1.4162598,22.9653015,2.0332489c5.7385254,2.4426117-1.1803284,6.9503479,3.5229492,10.3877106&#x9;&#x9;c1.1887207,1.634613,12.9698792,3.6780853,19.0686951,3.6780853C313.0396118,181.5826721,314.7835999,181.8493805,315,180.5081635z&#x9;&#x9; M288.3971252,164.1200867c0.5484314-1.3457947,2.0415955-2.0806885,2.3489075-3.6079407&#x9;&#x9;c0.6802063-3.4100189-3.5846252-6.0268097-6.0937805-3.7619019c-2.8536377,2.8203278-2.5726929,8.3721466-7.1868286,9.2990723&#x9;&#x9;c5.5996399-7.2809143,4.3279724-33.1451569-2.1772461-39.2031631c-0.8091125,0.1585846-0.9463806,1.053093-0.5375977,1.6585312&#x9;&#x9;c4.9680786,9.8739471,5.2769775,21.7450562,3.2630005,32.4032745c-1.0643311,5.8925018-12.3266296,6.9257812-12.052124,0.1359253&#x9;&#x9;c0.3513794-1.8084106-0.2077637-3.1444244-1.5330505-3.6669769c-1.7266541-0.6784058-4.1045837,0.2253113-5.1988831,1.9734192&#x9;&#x9;c-1.7456055,3.6088715-12.0515747,4.0248718-8.2687378-1.6145782c7.6392822-5.5511627-2.1006317-54.3885269,0.1257629-23.977478&#x9;&#x9;c0.8173065,9.3914032,1.588501,18.2619781-2.9212494,23.219162c-6.3564453,6.5643921-22.131958,5.8684845-12.0090637-6.8746796&#x9;&#x9;c-5.1252441-4.0059662-4.390274,16.9530487-16.3974609,13.9081573c0.7472076-0.5900726,1.5789795-1.6717529,1.5814972-2.5578003&#x9;&#x9;c0.0467072-1.1130981-1.4987488-1.6122284-1.8354492-0.4340973c-0.4276276,2.654892-5.0244598,2.2080841-9.0773163,1.8117676&#x9;&#x9;c-8.2073059-1.6474762-28.4400635,7.9196167-24.7225342-7.4275818c0.2122803-1.7626953,1.4852295-7.1029968-0.6796875-6.5253296&#x9;&#x9;c-1.7938995,4.7726898-1.5310059,12.5308533-7.3622742,13.7328186c-7.3638458,1.937912-14.0357056,2.3171844-20.39328,1.1585083&#x9;&#x9;c-3.1638184-0.7032471,1.2274475-6.1175842-1.1390991-8.192627c-0.7944183-0.8313141-1.2346954-0.1235809-1.4900055,0.9760742&#x9;&#x9;c-1.5827637,7.414093-7.5995636,7.148407-13.4169312,6.8915405c-12.4555969,0.0769043-31.5904694,1.7512512-33.4221802-14.7744293&#x9;&#x9;c-0.0804291-1.1586456-1.9199219-1.219635-1.8739395-0.0024872c0.2881317,10.9377594,14.2297592,17.1892548-6.5106277,14.2471313&#x9;&#x9;c-8.2470932-1.5138855-7.3808823-5.3629761-11.7347107-9.8478241c-2.9803619-2.6651764-1.8413162-7.5632019-2.1271362-10.9620819&#x9;&#x9;c-0.4822159-0.4714661-1.4146347-0.3299866-1.5476761,0.3907776c-2.2448044,7.1893158,0.5206223,10.5990753,2.9610367,13.6074829&#x9;&#x9;c3.1274567,3.1874237-0.3117142,8.5549622-4.5149612,7.2982941c-4.464386-1.1710052-10.8813095,1.7439117-14.224556-1.2518921&#x9;&#x9;c-5.3442497-4.2812195-1.6414032-14.0552368-4.9036407-19.8633728c-3.5987129-2.920166,0.7573318,7.7282257-0.152092,9.6308899&#x9;&#x9;c0.1206284,3.8755798,0.2436905,7.8773041,2.9882889,10.9456482c-8.1733208-1.3155518-7.710247-10.5607758-10.992794-16.7760925&#x9;&#x9;c-3.5233192-8.9919739,3.7784805-25.3462219-3.6541977-31.3144455c3.1061172,10.8588638-1.5497932,24.1441879,3.1061668,35.1087112&#x9;&#x9;c3.0274544,6.6842041,3.6844139,10.7774506,2.0688324,12.8802338c-1.2636299,3.1999207-9.9701309,0.8478088-15.0410156,1.6258545&#x9;&#x9;c-7.6829338,1.2892151-8.0471153-13.60289-5.5871925-17.8780212c0.0250816,1.015152,9.0315399-26.1894455,3.4007759-22.3388519&#x9;&#x9;c-0.2213554,9.2797394-3.9501228,17.6294708-6.5128136,26.3050079c-2.6423969,6.6575623,5.6017494,14.0155182,4.5843201,19.8173523&#x9;&#x9;c-2.1934319,4.3283997-9.5659904,2.5319977-11.3604698,0.0871887c-2.6895256-2.8848572-5.3588352-0.6481628-2.5333405,2.2688751&#x9;&#x9;c5.7030239,6.9217682-6.4171848,6.2943115-10.7323389,5.9936829c-2.6479692-0.6608429-15.2903557,1.7460632-6.9558721-2.8342743&#x9;&#x9;c7.5033908-3.8859558,6.6602578-6.2556915,5.5924573-9.2558746c-3.1426926-7.2507629,7.5972795-20.1251831,8.5879393-28.2612152&#x9;&#x9;c2.8250294-12.3038635,10.7019653-22.9768372,17.6669483-33.270195c2.3567352-4.5011902,3.921833-7.4805527,12.3020439-7.0589828&#x9;&#x9;c42.8553734,2.0856552,85.6375732-2.8088989,128.4440155-3.3851471c26.7087402,0.0424728,52.063858,0.0426178,78.4669037,1.9304886&#x9;&#x9;c14.9668884,1.0696945,24.5884399,2.6366806,31.9986877,15.3568878&#x9;&#x9;c7.7918701,13.5537415,20.9791565,24.9663467,12.9221497,42.4564285&#x9;&#x9;c-2.8810425-3.5684204-12.8731995-40.5153427-16.1546021-33.8963547&#x9;&#x9;c6.3762817,10.4400101,7.5495911,22.9213791,13.6605225,33.4608994c2.813385,4.8259277,3.7638245,8.827652,3.0860291,12.9656982&#x9;&#x9;c-0.6272888,2.7262878-0.2158203,4.7192688,1.2962646,6.2711182c2.3357849,2.1953735,0.315155,6.4088898-2.8968506,5.6506653&#x9;&#x9;c-15.6873779-1.2516785-2.8060303-7.3053284-10.9534607-12.5250397&#x9;&#x9;C288.9718628,165.6673584,288.0080261,165.0493164,288.3971252,164.1200867z M78.2727051,63.9734116&#x9;&#x9;c1.531044,2.0314255,5.6191254,2.1128159,8.6799774,2.3356552c-8.0196228,0.0981445-16.2795944-0.1726532-24.0185661,2.3293457&#x9;&#x9;c0.5749207-0.9403229,1.1460533-1.7985992,1.7399101-2.6120682v-0.0006332&#x9;&#x9;c3.404213-4.5242195,8.9146729-5.054493,13.0281754-4.9571953C77.5046692,62.2436028,77.6965179,63.2198944,78.2727051,63.9734116z&#x9;&#x9; M241.7281952,60.3004837c-1.0917816-0.3174362-2.3110352-0.5149689-3.8054504-0.6172028&#x9;&#x9;c0.324646-6.0461044-3.0565491-11.3897285-5.1484222-16.8645592c3.0303955,0.0213547,5.996109,0.0007057,9.0030975,0.0031586&#x9;&#x9;C241.8152924,49.8263206,241.8001404,55.2347412,241.7281952,60.3004837z M233.6957092,62.6127892&#x9;&#x9;c0.95047-6.763485-5.3448792-12.1818314-6.1631927-18.6328659c-6.371048-2.8373642,7.2763824,16.8678207,4.0841217,18.7831078&#x9;&#x9;c-2.3525848,3.5373688-11.1729431,0.690506-12.1205139-3.1947136c-0.524353-0.8246422-1.1429443-0.9870224-1.3630066-0.872673&#x9;&#x9;c-1.3489075,1.7629738,0.6498566,4.5962868,4.0036011,6.0584221c-4.8753052,0.2729568-9.591217-3.901783-9.7805176-8.8062668&#x9;&#x9;c-0.0442657-0.5937805-0.5301971-0.8948097-0.9934235-0.8948097c-2.5841217,1.9913139,1.2818298,7.3767967,3.2400055,9.0283394&#x9;&#x9;c-4.9465637-0.5600281-10.563797-0.6816444-12.6305847-6.0899963c-3.5752869-1.5468445-0.3855438,3.440464,0.9819794,4.5930557&#x9;&#x9;c-5.1888733,0.118927-7.4885864-2.3726158-7.7043304-7.6109161c-3.7669373-3.2876244-0.7432404,6.4157791,0.3105011,7.0883751&#x9;&#x9;c-3.7019653,0.0334473-6.6630249,0.4865685-9.2732086,1.4174232c-7.0583496-12.2430115,6.6750946-30.9872818,2.5370026-39.1105576&#x9;&#x9;c-0.6071472-1.1918354-3.2715912,0.3491535-5.7252502,1.5475883c-4.8255768,2.6227493-10.8177338,3.6695557-16.0498199,3.7985172&#x9;&#x9;c0.9910278-5.1098576-1.6069946-10.3266106-0.6904144-15.4143162c20.2767944,9.3923454,42.2465973,7.9613476,62.6430206,1.6648092&#x9;&#x9;c1.412384,2.2561388,0.3528442,5.1111383-0.437973,7.9441309&#x9;&#x9;C223.3914185,42.4383698,242.2710266,55.0727882,233.6957092,62.6127892z M178.3442688,65.5498734&#x9;&#x9;c-4.6164856-0.4219742-6.4252319-1.6612358-8.9753265-5.9650421c-3.7990112-1.6034203,0.0660095,3.6071358,1.2041168,4.8000488&#x9;&#x9;c-2.8891144-0.0750961-5.2304535-2.3608971-6.7046661-4.3071709c-0.3193359-0.441761-0.8406219-0.5755539-1.2748108-0.3231163&#x9;&#x9;c-1.28479,1.5773735,1.2133026,3.0064926,2.3539581,4.0951271c-3.3833771-0.2949257-8.4467468,0.6285057-9.9888306-2.7490273&#x9;&#x9;c-1.764389-2.6887932-2.634201,1.4021759-0.3698425,2.5477104c-4.4516907,0.097187-8.4540405,0.3931694-12.2165833,0.9024544&#x9;&#x9;c-2.1972046-1.551712-0.594162-3.5851059-2.0667572-4.6925125c-2.3990479,0.3000183-1.0326996,3.8232422-0.144577,4.9897537&#x9;&#x9;c-8.2302094,1.3003616-18.8752975,5.2523575-11.4681244-7.568634c0.4719696,1.2517929,0.8872375,4.4466019,2.6882324,3.7976074&#x9;&#x9;c0.3952637-0.237011,0.6363373-0.7425117,0.3258362-1.2600021c-1.3580933-1.9525871-1.1624603-4.2743568-0.9718781-6.5197678&#x9;&#x9;c0.471283-6.5634193,1.0449829-8.5301933,1.4502411-16.3426514c0.1651306-3.1836433-1.8862305-9.7945747,0.0414124-11.6871758&#x9;&#x9;c20.4057312,5.8977356,33.3074036,10.7740326,54.7155457,1.9835777c0.014328,11.8184814-8.242691,23.6762085-3.0784149,35.4734421&#x9;&#x9;c0.9688873,1.3486557,0.4285583,3.6158218-1.5363312,3.3977814c-2.0635376-0.0333557-2.2644501-1.9442215-2.803894-3.4226418&#x9;&#x9;C177.6812134,61.666275,177.7543488,64.4112625,178.3442688,65.5498734z M77.0938339,21.8028736l3.1112595-0.0012627&#x9;&#x9;c1.6255264,6.1702156,4.7010117,11.7144604,4.1992569,18.3614941l-15.4465027-0.0246124&#x9;&#x9;c0.1432571-6.5102997,0.2076263-12.5125732,0.1962662-18.3368816&#x9;&#x9;C71.8008957,21.8060284,74.447052,21.8047657,77.0938339,21.8028736z M79.9987259,60.2051888&#x9;&#x9;c20.8462296-31.2407646-12.6803131-48.0839233,11.8513565-41.6171188&#x9;&#x9;c44.5905914,11.7545433,70.7096252-17.8878498,58.6708069,8.9804211c-6.804184-0.65135-18.5453033-7.759613-20.3119812-5.6682529&#x9;&#x9;c-3.4996796,4.1428432,2.67453,25.885294-3.8725662,36.2362442c-1.6020508-1.238224-0.8661346-3.9141426-2.5308151-4.4520683&#x9;&#x9;c-2.4503555,1.2446594,0.6694717,5.1293678,1.6990433,6.2815933c-0.3874893,0.8317719-0.8481827,1.7885017-1.3820877,2.743969&#x9;&#x9;c-0.4488602-1.5189972-3.1612625-5.0570946-3.8752747-2.3243446c0.506485,1.1104012,1.8779907,1.8175583,2.18396,3.0740776&#x9;&#x9;c-5.3162842-0.5269585-10.6805267-0.0744705-15.3417358,0.4165154c0.7352142-1.0147858,1.9443741-2.9269829,1.6073761-4.1254196&#x9;&#x9;c-0.2132187-1.0327301-1.7219391-1.1846313-1.8181686,0.0468292c-0.4704742,5.3851967-6.3251419,4.7608528-10.5233841,4.9564323&#x9;&#x9;c1.2094193-0.9158058,4.3375626-5.8934784,0.7730865-4.3841629c-0.8304443,1.9734497-2.3700943,3.5526009-4.3273697,4.441597&#x9;&#x9;C89.0964813,64.1277771,77.2182617,65.804863,79.9987259,60.2051888z M231.8112793,65.3775864&#x9;&#x9;c2.4006653-0.7737198,4.5526733-1.7468529,5.5876617-3.8565788c5.9204254-0.1777534,7.5472412,3.5882988,11.5741425,6.1032448&#x9;&#x9;C243.5293274,66.1973648,237.9454498,65.7379379,231.8112793,65.3775864z M238.2319641,40.9507027&#x9;&#x9;c-2.0409241,0.0050507-4.1475067,0.0088348-6.2237854-0.0113602c-3.021637-6.4175301-3.3649597-13.0351143-0.990799-19.1522465&#x9;&#x9;c3.5635071,0.0691986,7.0263214-0.0238152,10.5782928-0.0082054c0.056427,6.4113369,0.137085,13.0446835,0.1729126,19.1686573&#x9;&#x9;C240.5884552,40.9431305,239.4095764,40.9475479,238.2319641,40.9507027z M241.5805206,16.715044&#x9;&#x9;c-0.0037842,0.9800797-0.0075684,2.0409374-0.0012665,3.189518c-3.4112854-0.0149879-6.7395325,0.0673752-10.1605072,0.0126209&#x9;&#x9;c1.4241028-6.821703-3.4715881-6.2317934-8.7722626-4.3504896c-8.8078613,3.126071-17.6030884,3.7322149-25.66745,3.7951326&#x9;&#x9;c-30.1246185,0.2350311-34.4832764-21.9127979-31.8295441,10.354887&#x9;&#x9;c-3.9922638-0.0725765-8.2533569-0.6323509-12.6697083-1.6654415c12.7829285-27.7211342-13.7379608-8.5612259-35.2866287-8.5285473&#x9;&#x9;c-7.921875,0.0120144-16.8233566-0.8478832-25.3716278-2.664423c-4.6685715-0.9920893-13.6302185-5.0832615-11.9660568,3.0683479&#x9;&#x9;c-3.533226,0.0014668-7.1699066,0.0044384-10.6925125,0c0.4556961-8.5426531-3.7613678-19.4905834,9.8537598-16.6119995&#x9;&#x9;c24.0178299,0.4468842,48.2200699,0.1475618,71.5281448,0.6591496c25.5289764-0.0847557,51.0623016,1.2840247,76.72258,1.4556551&#x9;&#x9;C240.5104218,5.4458995,241.7306366,4.5704465,241.5805206,16.715044z M84.2850723,42.0374374&#x9;&#x9;c-0.4853058,6.4049072-3.3718948,12.1364479-5.93853,17.2021866c-3.415451-0.1470413-6.8498306,0.4114685-9.9547806,1.6212654&#x9;&#x9;c0.1842804-6.1392212,0.3748703-12.4803886,0.5212784-18.8480644L84.2850723,42.0374374z M105.3413162,67.9448471&#x9;&#x9;c22.8872147,2.0473557,45.2769852-3.73172,68.1461258-1.3901215c11.0970306,1.8375626,22.633316,1.3276443,33.7934723,0.8309784&#x9;&#x9;c16.2935638,0.7084808,41.2887573-5.7278824,50.1121521,11.789978&#x9;&#x9;c-58.4501343-1.2407303-113.1687317-0.395668-171.2753143-1.0766373&#x9;&#x9;c-10.8112335,0.2834396-21.3554535-3.3372726-31.3530655,2.9194183&#x9;&#x9;C58.1592712,61.6430244,90.2300949,70.1953964,105.3413162,67.9448471z M77.5715637,79.9178467&#x9;&#x9;c58.2762604,0.0038452,113.6324615,2.1373672,172.0894012,1.6699753&#x9;&#x9;c10.2034149-0.5390701,16.4019623,1.6059952,18.4479523,6.3675537&#x9;&#x9;c-22.3953857-6.9982376-43.2845459-3.9768219-69.9066162-2.7003021&#x9;&#x9;c-49.941925,2.3946838-96.7241211-0.4139023-147.1174927,2.8157883&#x9;&#x9;C56.7232971,79.5481415,68.3976364,79.8053818,77.5715637,79.9178467z M107.619545,89.1544418&#x9;&#x9;c51.9773178,0.9085464,92.7755814-2.3826904,137.0280457-2.4258804c10.1769257-0.5213013,24.5278778-0.027153,32.2208099,10.04879&#x9;&#x9;c-14.9268494-5.1673737-31.1138611-4.4566269-46.7295074-4.7855453&#x9;&#x9;c-62.3213196,1.2701569-123.5545959,0.7648697-186.036438,2.9301453&#x9;&#x9;C44.7759132,86.7487259,97.474411,88.9771118,107.619545,89.1544418z"/>
        <path d="M267.2329712,136.7031097c-0.6958313-0.0743561-1.3304443,0.7498474-0.9932861,1.4098663&#x9;&#x9;c2.7098389,6.0401306,2.4056702,12.8142242,2.1115723,19.3649139&#x9;&#x9;C272.2308655,162.3520203,270.4164734,138.2825775,267.2329712,136.7031097z"/>
        <path d="M28.417408,129.7813416l-0.0397587,0.0302887&#x9;&#x9;c-0.6294174,7.9038086-17.0156174,30.6584625-12.6324615,35.1310425c0.6623096,0.1720734,1.4001446-0.4266357,1.1643162-1.1268005&#x9;&#x9;c-0.7598095-3.3024597,0.9876728-6.2572021,2.6770935-9.1141357&#x9;&#x9;C19.3002357,155.1715698,34.2276154,127.5739212,28.417408,129.7813416z"/>
        <path d="M19.6067924,175.6424866c-2.4376717,1.5009613-6.448514,0.0623779-4.9116621-3.2701111&#x9;&#x9;c0.5738564-1.0417328-1.0148201-2.0187836-1.6238861-0.9367371c-0.6699877,1.6025848-3.3735199,3.0871124-2.6164055,4.5653229&#x9;&#x9;C11.6521616,179.9589386,25.6346455,177.352478,19.6067924,175.6424866z"/>
        <path d="M247.6137238,135.941391c-0.5289612-0.2012634-1.041748,0.5849152-1.3593597,1.1586761&#x9;&#x9;c1.0237427,5.7090759,0.7106476,15.0546265-4.9281158,19.6245728c-0.1105804,0.6742554,0.4923401,1.3092804,1.142868,1.005661&#x9;&#x9;C248.8861542,154.9315491,249.6466522,140.2229462,247.6137238,135.941391z"/>
        <path d="M296.1734009,158.8807983c6.9068298,7.0772095-3.9914551,7.4154205-0.2809448,13.4005737&#x9;&#x9;c0.5375061,1.0574341-0.6602173,2.1320038-0.301239,3.132019c1.4257812,1.6896057,2.5966797-1.3963776,2.2594604-2.5589752&#x9;&#x9;c-0.2565308-6.5246277,5.8192444-9.9162598-1.2318115-16.4632568&#x9;&#x9;C294.2478027,154.9315033,294.7633667,157.831665,296.1734009,158.8807983z"/>
        <path d="M85.9069672,57.008728c5.8237762-7.6268616,9.2823029-28.9869576-0.0104218-35.7585678&#x9;&#x9;c4.8863144,12.4108543,5.2144928,22.1751404-0.8199005,34.3609924C84.6640167,56.2313919,85.2195358,57.00634,85.9069672,57.008728&#x9;&#x9;z"/>
        <path d="M179.8588867,57.5363197c0.6006165,0.219265,1.0530701-0.7785873,1.2344055-1.1182861&#x9;&#x9;c-1.2301025-2.4538193,1.3876343-8.0764885,0.8031311-10.3801575&#x9;&#x9;C178.2617645,45.2337036,178.7744141,57.5615997,179.8588867,57.5363197z"/>
        <path d="M223.6689911,19.286726c-1.1104736-0.0829525-8.5403595,3.3447285-4.1639099,3.8717232&#x9;&#x9;c2.431015-0.9935322,6.9754791-4.2221699,4.5486908-0.4224129c-1.2460938,2.0429764-3.6847229,8.9494877-0.5997009,10.2058468&#x9;&#x9;c1.745224-1.2668285-0.3318939-4.7624912,0.9161835-6.8359871&#x9;&#x9;C225.9668884,23.6450386,228.8234558,18.1963787,223.6689911,19.286726z"/>
          </g>
  </svg>